<svg width="220" height="316" viewBox="0 0 220 316" fill="none" xmlns="http://www.w3.org/2000/svg">
<g clip-path="url(#clip0_539_3)">
<path d="M110.014 0.0830078H109.93L79.4421 69.2288L0 93.5322V94.7778L142.884 192.794L141.931 267.227L0 214.939V315.834H115.815L164.937 273.815L219.888 222.468V93.5322L142.407 66.5161L110.014 0.0830078Z" fill="#DE4126"/>
<path d="M109.958 0H0V0.0830413H109.93L109.958 0Z" fill="white"/>
<path d="M109.958 0L110.014 0.0830413H219.888V0H109.958Z" fill="#ED184D"/>
<path d="M142.407 66.5161L219.888 93.5322V0.0830078H110.014L142.407 66.5161Z" fill="#B0254F"/>
<path d="M142.884 192.794L0 94.7778V214.939L141.931 267.227L142.884 192.794Z" fill="#B0254F"/>
<path d="M140.922 93.6152H219.636C219.636 93.6152 224.287 0.0830078 111.051 0.0830078C-2.18576 0.0830078 0.700491 93.6152 0.700491 93.6152C0.700491 93.6152 -4.1753 144.27 111.051 191.604C111.051 191.604 140.67 200.434 138.064 225.54C135.094 253.968 111.051 251.698 111.051 251.698C111.051 251.698 81.5437 251.754 79.386 212.171C33.5982 212.89 0.140053 212.171 0.140053 212.171C0.140053 212.171 -8.96706 316.72 111.051 316C231.069 315.28 219.636 225.54 219.636 225.54C219.636 225.54 231.909 161.931 110.098 121.656C71.8201 111.414 83.6734 77.8374 83.6734 77.8374C83.6734 77.8374 87.5964 63.4712 111.051 63.9418C134.477 64.4124 140.922 93.6152 140.922 93.6152Z" fill="#261C21"/>
</g>
<defs>
<clipPath id="clip0_539_3">
<rect width="220" height="316" fill="white"/>
</clipPath>
</defs>
</svg>
